<svg id="Layer_1" data-name="Layer 1" xmlns="http://www.w3.org/2000/svg" viewBox="0 0 420.36 56.35"><defs><style>.cls-1{fill:#071852;}.cls-2{fill:#0f1b4e;}.cls-3{fill:#0f1f54;}.cls-4{fill:#101d4c;}.cls-5{fill:#0d1946;}</style></defs><path class="cls-1" d="M413,620c-3.21,8.75-6.38,17.51-9.65,26.23-1.22,3.27-2.64,6.47-4,9.67-.51,1.17-.75,2.8-2.37,2.89s-2.77-1.18-3.41-2.53q-3.66-7.66-7.1-15.41c-1.61-3.65-3.06-7.36-4.54-11.06-.51-1.3-1.19-2.58-2.64-2.69-1.75-.12-1.84,1.57-2.35,2.75q-5.47,12.59-11,25.15c-.65,1.48-1,3.35-3.12,3.46s-3.12-1.5-3.83-3.29c-4.34-11-8.74-21.92-13-32.92-.62-1.59-1.87-3.93.55-4.75,1.94-.65,3.86.81,4.71,2.84,2.95,7.06,5.82,14.15,8.72,21.23.25.62.45,1.26.7,1.87.44,1,.64,2.5,2.12,2.36,1.3-.12,1.75-1.43,2.19-2.49,2.93-7.06,5.8-14.14,8.76-21.18,1-2.3,1.95-4.73,5.15-4.62s4.66,2.2,5.88,4.68a197.14,197.14,0,0,1,9.15,21.05c.44,1.22.48,3,2.07,3s1.78-1.76,2.25-2.94c3-7.4,6-14.8,8.83-22.25.79-2.06,1.83-3.6,4.08-3.84S412.83,618.52,413,620Z" transform="translate(-88.44 -617.13)"/><path class="cls-2" d="M303,640.06c-5.79-3.64-5.4-11.7-1.89-17.47,1-1.71,1.36-2.41,2.81-3.26,9.76-1.66,18.4-1.3,28.2-.23a10.4,10.4,0,0,1,2.6.77c3,1.3,5.63,6.15,3.09,6.18a35.7,35.7,0,0,1-4.78-.26,89.28,89.28,0,0,0-14.51-1.29c-1.43,0-3.75,0-5.23,0-8.21,0-12.27,7.37-8.54,9.55,7.37,4.15,16.09,1,23.86,1.37,7.64,1.08,9.91,2.6,10.22,10.65-.8,8.25-2.82,10.58-10.17,11.74-7.7,1.21-15.61.36-23.39-.76a13.33,13.33,0,0,1-6-2.25c-1.92-1.35-3.27-4.38-1.43-5.25,1.6-.77,2.73-.06,3.92.4a8.12,8.12,0,0,0,3.33.89c5.56.65,9.88,1,13.74,1.43a17.37,17.37,0,0,0,7-.4c2.28-.69,6.88-1,7.1-4.72.24-4.12-4.87-6.13-7.79-6.17-4.32-.05-8.66-.06-13,0C308.86,641,306,641.18,303,640.06Z" transform="translate(-88.44 -617.13)"/><path class="cls-2" d="M224,624c.26.17.36.36.31.57s-.11.33-.19.33c0,9.3,0,18.61,0,27.91,0,2.32,0,4.33-3.18,4.43-3.72.12-2.77-2.55-2.81-4.48-.17-8.15-.34-16.3-.3-24.44,0-3.83-1.51-5.26-5.33-5.18-6.64.13-13.3,0-19.94-.25-3.11-.12-4,1.07-4,4,.14,9,0,18,.08,26.94,0,1.74.29,3.41-2.32,3.32-2.18-.07-3.34-.76-3.31-3.23q.22-16.45.19-32.92c0-2.68,1.23-3.4,3.67-3.37q15,.18,29.93.17C221,617.8,223.05,620.16,224,624Z" transform="translate(-88.44 -617.13)"/><path class="cls-2" d="M172.19,617.18c2.52,0,3,1.41,3,3.54-.08,9,.14,18-.18,26.94-.26,7.22-2.19,9-9.47,9.32q-10.47.49-20.95.55c-6.27,0-9.37-2.51-10-8.73-.94-9.27-.59-18.6-.22-27.91.08-2.08.89-3.62,3.21-3.59,2.95,0,2.21,2.38,2.24,4.05q.24,12.46.3,24.94c0,4.52,1.87,6.7,6.67,6.37,6.13-.42,12.29-.55,18.45-.62,2.86,0,3.77-1.35,3.72-4,.25-4.73.27-7.76.27-12.42,0-.48,0-.55,0-.55s0-.26,0-1c0-4.33.08-8.65,0-13C169.14,618.85,169.25,617.14,172.19,617.18Z" transform="translate(-88.44 -617.13)"/><path class="cls-2" d="M237.46,652.66c8,0,16,0,23.94.1,3,0,3.92-1.26,3.92-4.23,0-9.15.31-18.29.45-27.44,0-2,0-3.7,2.77-3.64s2.67,1.91,2.67,3.8c0,14,.16,27.94-.07,41.9-.14,8-1.91,9.63-9.87,9.91-6.64.23-13.3.05-19.95.06-1.71,0-3.54.11-3.65-2.27-.13-2.71,2-2.13,3.54-2.19,6.65-.26,13.29-.62,19.94-.63,5.92,0,3.47-4.44,4-7.19.73-3.5-1.92-3.1-4.07-3.12-7-.08-14-.12-21-.23-3,0-6-.27-8.16-2.82C233.58,650.09,234.6,649.72,237.46,652.66Z" transform="translate(-88.44 -617.13)"/><path class="cls-2" d="M236.32,645.86c0,2.32-.06,4.67,1.14,6.8-2.76-1.89-3.35,1.08-5.12,1.87a.81.81,0,0,1-.33.14c-.07-1.64-.57-.92-1.54-5.7-.39-6.73-.27-18-.22-27,0-2.17-.5-4.5,2.9-4.49s3,2.26,3,4.42Q236.25,633.89,236.32,645.86Z" transform="translate(-88.44 -617.13)"/><path class="cls-3" d="M459.56,624.71c-.1-4.64-3.07-6.78-7.53-6.85-4.82-.08-9.65,0-14.47,0V618c-4.82,0-9.64,0-14.46,0-2.28,0-4,.37-3.89,3.17S421.52,623,423,623c8.81.18,17.62.37,26.43.29,5.66,0,4.45,3.94,4.85,7.26.47,3.91-1.61,4.37-4.74,4.31-8.47-.16-16.95-.16-25.43-.15-1.52,0-3.81-.71-4,1.7-.5,5.6-1.21,11.28.54,16.81a6.19,6.19,0,0,0,6.17,4.29c9.63.16,19.27.08,28.91.05,2.56,0,4-1.32,4-4C459.65,644,459.75,634.34,459.56,624.71Zm-5.47,24.86c-.27,1.91-1,2.54-2.85,2.54-7.32,0-14.64.08-22,.12-5.95,0-3.79-4.56-4.32-7.6-.61-3.48,1.28-4.24,4.3-4.1,3.32.16,6.66,0,10,0v.17h7.49C454.19,640.7,455.18,642,454.09,649.57Z" transform="translate(-88.44 -617.13)"/><path class="cls-4" d="M507.9,624c-.41-4.19-3.13-6.09-7.12-6.18-4.82-.11-9.65,0-14.47,0V618c-5,0-10,.08-15,0-2.57-.06-3.42,1-3.55,3.53-.85,16.3,0,32.58.09,48.87,0,1.64.2,3.09,2.27,3.08s2.48-1.29,2.51-3c.05-3,.35-6,.17-9s.88-4,4-3.87c8.13.21,16.28.44,24.4-.53,4.1-.5,6.21-2.69,6.81-6.67C509.34,641.59,508.77,632.81,507.9,624Zm-10.71,28.66c-6.14-.17-12.29-.17-18.42.14-4.48.22-5.87-1.85-5.71-5.9.13-3.15,0-6.31,0-9.46h0c0-3,.19-6-.05-9-.3-3.56.88-5.17,4.66-5.06,6.63.2,13.28.18,19.92.07,3.18,0,4.44,1.21,4.44,4.39,0,6.47.24,12.94.41,19.41C502.52,650.93,501.16,652.8,497.19,652.69Z" transform="translate(-88.44 -617.13)"/><path class="cls-5" d="M128.92,625.53c-.18-5.22-2.61-7.51-7.92-7.62-9.63-.2-19.27,0-28.91-.08-2.88,0-3.69,1.07-3.64,3.82.13,8,.53,15.9.53,23.87,0,.36,0,.47,0,1,0,8.3,0,15.65,0,24,0,1.68.24,3,2.34,3,1.78,0,2.16-1.31,2.24-2.7a85.59,85.59,0,0,0,.37-9.46c-.16-3.18,1.09-3.79,4-3.78,7.47,0,14.94-.34,22.42-.58,4.85-.16,7.6-2.38,8.08-7.53A181.67,181.67,0,0,0,128.92,625.53Zm-5,17.49c0,1.66-.07,3.33-.07,5a4.26,4.26,0,0,1-1,3.2,4.49,4.49,0,0,1-3.21,1.07c-3.65,0-7.3.07-11,.13s-7.3.13-10.95.25a3.17,3.17,0,0,1-2.73-.83,4,4,0,0,1-.65-2.71c0-1.91,0-3.82,0-5.73s-.12-3.71-.14-5.62c0-.16,0,0,0-.07s0,.13,0,0a1.7,1.7,0,0,0,0-.22c0-.08,0-.14,0-.28a63.69,63.69,0,0,0-.53-7.3c-.2-2.41,0-4.61,1.54-6.07s3.76-1.66,6.17-1.56,5,.57,7.33.59c8.57.08,12.21-.45,13.79,1.17s1.1,5.38,1.45,14.06C124,639.7,123.94,641.36,123.91,643Z" transform="translate(-88.44 -617.13)"/></svg>