<svg id="Layer_1" data-name="Layer 1" xmlns="http://www.w3.org/2000/svg" viewBox="0 0 390.77 370.03"><defs><style>.cls-1{fill:#0f0f44;}.cls-2{fill:#151f44;}.cls-3{fill:#6c6e6a;}</style></defs><path class="cls-1" d="M453.56,222.22c3.2.3,7.29.8,7.47,5.7-2.15,1.25-4.49,1-6.83,1-5.82.13-11.64-.38-17.47-.12-11.74.53-22.08,4.22-30.48,12.88-9.39,9.69-19,19.15-28.61,28.64-2.24,2.22-12.83,9.74-8,4.58-1.6-.5-3.31-.91-2.79-3.24,11.7-9.86,22-21.19,32.37-32.31C414.31,223.16,433.12,220.31,453.56,222.22Z" transform="translate(-109.86 -205.37)"/><path class="cls-1" d="M316.21,288c-3,0,.18-2.62-1.39-3.21,7.4-6.67,16.37-9.06,26-9.75,8.73-.63,17.7.48,26-3.45.78,1.32,2.15,1.8,3.42,2.42,5.68-1.48-3.45,4.67-6.24,5.47a66.71,66.71,0,0,1-17.72,2.35c-8.26.08-16.17,1.37-23.56,5.29C320.77,288.2,308.88,298.41,316.21,288Z" transform="translate(-109.86 -205.37)"/><path class="cls-1" d="M437.75,442.08c.18,1.74-1.56,1.33-2.5,1.59-2.54.7-1.24,4.06-3.51,4.9-1.25-.56-1.19-1.84-1.58-2.83-.65-1.66-3.58-2.88-1.64-5,1.77-1.92,4.28-1.06,6.49-.34C436.05,440.75,437.6,440.69,437.75,442.08Z" transform="translate(-109.86 -205.37)"/><path class="cls-1" d="M372.37,421.4c2.05,0,3.83.52,3.74,3.36-.08,2.5-1.07,3.73-3.55,3.62s-3.68-1.24-3.29-3.75C368.68,422,370.57,421.44,372.37,421.4Z" transform="translate(-109.86 -205.37)"/><path class="cls-1" d="M375.89,205.37c.92,0,1.38.71,1.34,1.69-.42.92-.28,2.43-1.86,2.3-.84-.07-1.3-.9-1.35-1.79C374,206.26,374.45,205.31,375.89,205.37Z" transform="translate(-109.86 -205.37)"/><path class="cls-1" d="M329.15,239.87c-.93-.11-2.23,0-2.25-1.3,0-1.43,1.19-1.7,2.41-1.69,1.09.18,2.68.14,2.57,1.54C331.8,239.54,330.39,240,329.15,239.87Z" transform="translate(-109.86 -205.37)"/><path class="cls-1" d="M310.6,241c1.4.07,2.73,0,2.58,1.37-.18,1.71-1.88,1.6-3.13,1.79-.81.13-1.83,0-1.82-1.11C308.25,241.22,309.6,241,310.6,241Z" transform="translate(-109.86 -205.37)"/><path class="cls-2" d="M281.48,270.46l-.09,1.6c-7.36,0-14.72.12-22.07-.06-3-.07-4.29,1.1-4.4,3.93-.73,3-.49,6.21-1.28,9.23-.3,1.15.33,3.13-1.6,3.06-2.31-.09-1.39-2.19-1.5-3.5-.3-3.58.45-7.22-.45-10.79-1.25-2.52-3.67-1.92-5.71-2-7.07-.24-14.16-.23-22.32-1.38,8.09-.86,15-1.82,21.95-2.25,4.38-.27,6.66-1.52,6.45-6.44s.42-10,.68-14.92l1.77-.94c.6,5.45,1.51,10.9,1.7,16.37.14,3.85,1.76,5.12,5.32,5.47C267.13,268.55,274.3,269.57,281.48,270.46Z" transform="translate(-109.86 -205.37)"/><path class="cls-1" d="M251.33,239.69c2.35,1.92,1.7,4.19,1.58,6.32-1.1-.64-1.35.31-1.77.94A19.06,19.06,0,0,1,251.33,239.69Z" transform="translate(-109.86 -205.37)"/><path class="cls-3" d="M252.91,246l-1.77.94C251.56,246.32,251.81,245.37,252.91,246Z" transform="translate(-109.86 -205.37)"/><path class="cls-1" d="M419.81,262l-34.63,20.8c1.61,2.18,4,1.77,5.92,2.42,4.24,1.4,4.83,3.11,1.55,6.65-4.06,4.38-8.53,8.39-12.77,12.61-.72.71-3,1.73.05,2.46-1.05,1.44-2.56,1.06-4,1,2.9-6,7.87-10.17,12.54-14.58,3-2.81,2.5-4.41-1.09-6.11-2.59-1.23-7.26-1.29-7.33-3.88s4.61-3,7.07-4.6c10.81-7.09,22.25-13.1,33.67-19.14A2.19,2.19,0,0,1,419.81,262Z" transform="translate(-109.86 -205.37)"/><path class="cls-1" d="M313.72,318.75c-3.94-5.16-7.9-10.29-10.37-16.41-1.43-3.52-1.09-6.38,1.72-9,3.14-3,6.08-6.14,9.75-8.49,2.46.16,1.27,2.32,1.93,3.48,5.85-.71-3.24,5.65-5.39,8.05s-2.48,4.79-.66,7.59c3,4.6,6.49,8.84,9.62,13.35,3.31,4.76,3.18,6.79-.81,10.93-4.49,4.68-9.17,9.17-13.71,13.79s-4.28,7,1.25,10.39c1.14.7,2.44,1,3.61,1.69l.06,0,.32.41c.66,1,.41.44,1.06,1.43a9.18,9.18,0,0,1,.59,1.29,3.35,3.35,0,0,1,0,.55c-.57,2.25-2.46,2.65-4.29,2.67-3.67,0-6.2,2-8.54,4.5-7.36,8-12.95,17.34-19.52,25.93a7.1,7.1,0,0,0-1.15,5.71,11.39,11.39,0,0,1-.36,5.43c-1.48,4.62,1,7.46,5.87,6.63a16.74,16.74,0,0,0,4.18-1.61,87,87,0,0,0,19.52-12.93c3.91-3.38,7.75-6.81,12-9.82,2.57-1.83,3.83-4.08,1.79-7.21s-1.17-6,1.32-8.56c3.83-3.94,7.76-7.78,11.63-11.69,5.19-5.24,5.06-5.1,0-10.4a28.05,28.05,0,0,0-6.36-5,8.28,8.28,0,0,0-1-.46c-.44-.27-1.72.67-2.42,1.15a14.54,14.54,0,0,0-3.14,3c-.77.92-1.37,2.52-3,1.39-.26-.13-.34-.15-.59-.28a.46.46,0,0,1-.24-.28c1.71-6.22,7.39-8.68,11.91-12.05,2.23-1.66,4.18,1,5.77,2.67,3.91,4.22,4.05,4.26,8.17.18,8.51-8.45,17-17,25.46-25.43,1.76-1.76,3.43-3.65,5.85-4.6,1.29-.34,2.7-.37,3.72-1.45,10.47-5.76,21.08-11.26,31-17.21.32-.86.21-1.14-.18-1.29-7.45-2.86-8.08-5.11-2.95-11.48,3.75-4.65,8.34-8.61,11.43-13.81a11.37,11.37,0,0,0,1.36-2.43c3.32-4.3,8.2-6.73,12.28-10.13,7.82-6.52,14.53-14.16,22-21,2.27-.93,4.54-1.36,6.82,0,2.82,19.13,2.09,37.54-12.7,52.15-2,2-3.91,4.23-5.84,6.27-3.06,3.88-5.2,5.67-7.74,8.58-4.43,4.58-9.37,8.64-13.45,13.57-11.08,8.25-10.22,20.71-11.31,32.42a76.59,76.59,0,0,1-2.57,14.6c-3.16,7.65-7.3,14.65-13.48,20.3-2.82,2.79-5.31,6.11-9.82,6.26-6.85-1.67-12.62-5.5-18.41-9.31-5.43-3.58-6.06-3.52-10.54.89-2.47,2.43-5,4.84-7.4,7.3-3.44,3.69-7.29,6.76-12.23,8.24-3.18.95-5.37,3.29-7.4,5.71-7.05,8.39-13.49,17.26-20.1,26-2.12,2.8-2.41,5.36-.94,8.72,2.95,6.75,3.15,14.11,3.58,21.36,1.47,5.44,4,10.59,4.36,16.34.15,2.41,1.8,3.41,3.81,4.06,12,3.85,18.95,12.48,22.77,24,1,2.95,1.56,3.63,4.59,1.7,18-11.55,37.09-7.83,49.41,9.47,2.42,3.39,4.48,6.57,9.18,3.08,1.09-.81,3.08-1.54,4.12-.15,1.33,1.78-.7,3-1.65,4.17-24.85,30.66-56.7,50-95.21,58.13A167.52,167.52,0,0,1,165.47,283.3q4.84-4.32,9.85-8.46c1.19-1,2.33-2.49,5.41-1.15-8,8.44-5.33,19.1-6.63,29a20.62,20.62,0,0,1-.9,3.88c-2.27,6.46-2.29,6.46,4.76,7.21,20.48,2.17,33.86,19.3,30.76,39.51-.34,2.21-.53,4,2,4.82,9.79,3.07,16.76,10.2,23.57,17.18,4.69,4.81,9.64,3.87,14.75,2.64,3-.72,5.49-1.2,8.64-.4,3.94,1,7.86-1.28,11-3.31,8.88-5.82,17.36-12.27,25.9-18.6,2.76-2,4.45-4.47,1.19-7.73-2.33-2.32-.65-4.18,1.16-5.9,5.42-5.17,10.7-10.49,16.28-15.49C316.1,323.88,315.84,321.54,313.72,318.75Zm24.75,199.73c0-1.16-1-1.49-2.11-1.47-.88,0-1.69.31-1.82,1.25a1.36,1.36,0,0,0,.9,1.62C337.48,520.06,338.45,519.57,338.47,518.48Zm-56.38-74.63c1.54,0,2.65-.66,2.58-2.27s-.46-3.06-2.42-3c-1.54.05-2.2,1.18-2.3,2.64A2.2,2.2,0,0,0,282.09,443.85Zm-74,13c3.92-2.14,8.5-1.13,13-2.66-4.55-.56-9.78.3-12.44-1.92-3.09-2.58-.9-8.14-1.51-12.36a18.44,18.44,0,0,0-.59-1.75c-.64,4.16-1.3,7.54-1.64,11-.24,2.52-1.07,3.61-3.86,4-4.48.61-9,.55-13.49,1.23,5.47,1.13,11.16.67,16.48,2.58,0,5.32.35,10.57,4.06,15.23Zm-27.69-29.41c-.45-2.18-1.59-4.51-3.77-4.51a4.69,4.69,0,0,0-4.75,4.71c0,2.52,1.89,3.83,4.25,3.89C178.6,431.63,179.78,429.83,180.35,427.48Zm-8.89,49.68c1.23.11,1.8-.67,1.75-1.78s-.33-2.26-1.69-2.62c-1.44.08-2,1.1-2.12,2.26C169.2,476.48,170.2,477,171.46,477.16ZM167.11,360.5c-.06-2-1.11-3.25-3-3.36s-3.29.85-3.31,2.9a3.2,3.2,0,0,0,3,3.38C166.06,363.76,166.66,362.2,167.11,360.5Z" transform="translate(-109.86 -205.37)"/><path class="cls-1" d="M254.92,275.93c.08,8.18-1.32,16.14-2.92,24.08l-1.91-.08v-26c2.2,4.14.16,8.77,1.69,13.67C253.92,283.62,252.78,279.28,254.92,275.93Z" transform="translate(-109.86 -205.37)"/><path class="cls-1" d="M212.5,321.67c1,2.07.88,4-1.36,6.33-.93-2.75-1.46-4.72.14-6.57A1.36,1.36,0,0,1,212.5,321.67Z" transform="translate(-109.86 -205.37)"/><path class="cls-1" d="M498.33,368.8c.92.45,2.22.62,2.3,2,.05.82-.8.91-1.41.87-1.2-.09-2.23-.55-2.28-1.95C496.91,368.85,497.63,368.81,498.33,368.8Z" transform="translate(-109.86 -205.37)"/><path class="cls-1" d="M489,363.82c-.11,1.4.35,2.83-1.17,2.6s-2-1.55-2-3c0-1.17.55-1.85,1.79-1.69A1.47,1.47,0,0,1,489,363.82Z" transform="translate(-109.86 -205.37)"/><path class="cls-1" d="M448.79,301.2a1,1,0,0,1,.12,1.63l-1.77,1.1-3.95-.12C443.13,298.8,445.62,299.27,448.79,301.2Z" transform="translate(-109.86 -205.37)"/><path class="cls-1" d="M437.94,369.79c2.19-.15,2.77,1.4,2.84,3.18-.11,2.06-1.07,3.22-3.14,3-1.87-.16-3.2-1.06-3-3.17A3.23,3.23,0,0,1,437.94,369.79Z" transform="translate(-109.86 -205.37)"/></svg>